Patient4_TMGait_0pt5_01_right_01_GRF.mot
version=1
nRows=78
nColumns=19
inDegrees=no
endheader
time	F1x	F1y	F1z	M1x	M1y	M1z	F2x	F2y	F2z	M2x	M2y	M2z	EC1x	EC1y	EC1z	EC2x	EC2y	EC2z
0.54	12.0252	751.2794	52.8956	-280.2931	-34.004	565.8032	-2.098	-5.7085	24.2051	-6.7776	-28.1774	-6.0356	-0.0592	0.0182	-0.0073	-0.0462	0.0165	0.9585
0.55364	9.4902	747.047	53.71	-278.8235	-34.6503	559.9928	-1.5324	-3.365	16.674	-4.4452	-19.3826	-3.7247	-0.0592	0.0182	-0.0073	-0.0462	0.0165	0.9585
0.56729	7.6582	743.2933	54.0861	-277.4617	-34.7689	554.1201	-1.0717	-1.3291	10.1305	-2.4096	-11.7183	-1.6813	-0.0592	0.0182	-0.0073	-0.0462	0.0165	0.9585
0.58093	6.6568	740.5621	53.9775	-276.4184	-34.3197	548.6927	-0.7439	0.27693	5.0354	-0.81345	-5.7335	-0.048789	-0.0592	0.0182	-0.0073	-0.0462	0.0165	0.9585
0.59457	6.4493	739.1595	53.4352	-275.8237	-33.3654	544.0177	-0.52861	1.4354	1.4394	0.3253	-1.4942	1.1314	-0.0592	0.0182	-0.0073	-0.0462	0.0165	0.9585
0.60821	6.92	739.1423	52.5737	-275.7099	-32.023	540.1981	-0.41545	2.2037	-0.84646	1.0615	1.2184	1.9174	-0.0592	0.0182	-0.0073	-0.0462	0.0165	0.9585
0.62186	7.9222	740.3753	51.5437	-276.0258	-30.4414	537.1968	-0.38217	2.6489	-2.1017	1.4747	2.7294	2.3704	-0.0592	0.0182	-0.0073	-0.0462	0.0165	0.9585
0.6355	9.3191	742.608	50.4833	-276.6691	-28.7523	534.8917	-0.41373	2.8311	-2.6266	1.6447	3.387	2.5483	-0.0592	0.0182	-0.0073	-0.0462	0.0165	0.9585
0.64914	10.9858	745.5448	49.5114	-277.5176	-27.066	533.1236	-0.51186	2.7925	-2.6812	1.6368	3.4991	2.5074	-0.0592	0.0182	-0.0073	-0.0462	0.0165	0.9585
0.66279	12.8283	748.874	48.715	-278.4437	-25.4599	531.7006	-0.65462	2.5274	-2.4702	1.4901	3.3057	2.2478	-0.0592	0.0182	-0.0073	-0.0462	0.0165	0.9585
0.67643	14.786	752.285	48.1547	-279.3207	-23.9843	530.4171	-0.83212	2.0086	-2.138	1.221	2.9763	1.7637	-0.0592	0.0182	-0.0073	-0.0462	0.0165	0.9585
0.69007	16.8379	755.4536	47.8641	-280.0179	-22.6592	529.039	-1.0103	1.1822	-1.7759	0.82623	2.6084	1.0186	-0.0592	0.0182	-0.0073	-0.0462	0.0165	0.9585
0.70371	18.9942	758.0379	47.8657	-280.4003	-21.4921	527.3117	-1.1407	0.0012512	-1.4356	0.29664	2.248	-0.012535	-0.0592	0.0182	-0.0073	-0.0462	0.0165	0.9585
0.71736	21.2786	759.7075	48.1801	-280.3411	-20.4904	524.9947	-1.162	-1.5498	-1.1355	-0.36948	1.8971	-1.3483	-0.0592	0.0182	-0.0073	-0.0462	0.0165	0.9585
0.731	23.7038	760.161	48.8299	-279.7269	-19.6714	521.8722	-0.97198	-3.4203	-0.88267	-1.1506	1.5288	-2.9661	-0.0592	0.0182	-0.0073	-0.0462	0.0165	0.9585
0.74464	26.2654	759.1777	49.8271	-278.4797	-19.0565	517.7983	-0.4546	-5.4135	-0.67594	-1.9707	1.0962	-4.6971	-0.0592	0.0182	-0.0073	-0.0462	0.0165	0.9585
0.75829	28.9397	756.6812	51.1476	-276.5878	-18.6553	512.7343	0.53877	-7.1489	-0.51639	-2.68	0.54128	-6.2246	-0.0592	0.0182	-0.0073	-0.0462	0.0165	0.9585
0.77193	31.6897	752.809	52.7243	-274.132	-18.4492	506.7945	2.1459	-7.967	-0.40877	-3.0163	-0.19177	-6.9748	-0.0592	0.0182	-0.0073	-0.0462	0.0165	0.9585
0.78557	34.4934	747.8789	54.4522	-271.2701	-18.3883	500.2054	4.4576	-6.865	-0.37579	-2.5791	-1.1221	-6.0579	-0.0592	0.0182	-0.0073	-0.0462	0.0165	0.9585
0.79921	37.3328	742.2526	56.1867	-268.1752	-18.3925	493.2213	7.4686	-2.483	-0.44239	-0.82553	-2.2254	-2.276	-0.0592	0.0182	-0.0073	-0.0462	0.0165	0.9585
0.81286	40.2109	736.1617	57.7679	-264.9641	-18.3592	486.0014	10.9788	6.8488	-0.64969	2.9109	-3.3829	5.8587	-0.0592	0.0182	-0.0073	-0.0462	0.0165	0.9585
0.8265	43.1168	729.5404	59.0433	-261.6357	-18.1878	478.5095	14.5053	22.9266	-1.0445	9.3495	-4.3587	19.9463	-0.0592	0.0182	-0.0073	-0.0462	0.0165	0.9585
0.84014	45.9924	721.9062	59.865	-258.0313	-17.7904	470.4597	17.139	47.3391	-1.6903	19.1263	-4.7358	41.4165	-0.0592	0.0182	-0.0073	-0.0462	0.0165	0.9585
0.85379	48.7335	712.2982	60.0718	-253.8205	-17.0875	461.2864	17.558	80.9732	-2.6498	32.5977	-3.9383	71.1038	-0.0592	0.0182	-0.0073	-0.0462	0.0165	0.9585
0.86743	51.1665	699.3419	59.4957	-248.5286	-16.0256	450.195	14.375	123.5197	-3.9695	49.6428	-1.3886	108.7931	-0.0592	0.0182	-0.0073	-0.0462	0.0165	0.9585
0.88107	53.0964	681.4544	57.9819	-241.6113	-14.5752	436.2575	7.1084	173.2127	-5.6715	69.5491	3.1037	152.9569	-0.0592	0.0182	-0.0073	-0.0462	0.0165	0.9585
0.89471	54.3006	657.1417	55.4235	-232.5557	-12.7536	418.5963	-3.0561	226.6338	-7.8366	90.9297	9.1305	200.4888	-0.0592	0.0182	-0.0073	-0.0462	0.0165	0.9585
0.90836	54.5428	625.2913	51.7954	-220.9793	-10.6381	396.5673	-14.2868	279.2206	-10.5802	111.9544	16.0452	247.1038	-0.0592	0.0182	-0.0073	-0.0462	0.0165	0.9585
0.922	53.6057	585.4861	47.2025	-206.7311	-8.3819	369.9498	-24.9836	327.8335	-13.7235	131.365	23.0189	289.7402	-0.0592	0.0182	-0.0073	-0.0462	0.0165	0.9585
0.93564	51.3563	538.1499	41.8907	-189.9384	-6.1834	339.0325	-34.0844	371.6624	-17.0019	148.8362	29.3771	327.5195	-0.0592	0.0182	-0.0073	-0.0462	0.0165	0.9585
0.94929	47.8046	484.4241	36.1851	-170.9719	-4.2293	304.5139	-40.9917	411.3291	-20.1661	164.6248	34.6627	360.913	-0.0592	0.0182	-0.0073	-0.0462	0.0165	0.9585
0.96293	43.0528	426.001	30.4134	-150.3919	-2.6612	267.4111	-45.4764	448.0295	-23.1109	179.2108	38.712	390.9415	-0.0592	0.0182	-0.0073	-0.0462	0.0165	0.9585
0.97657	37.2616	365.0098	24.8706	-128.9143	-1.5773	228.9962	-47.5947	483.0954	-25.8104	193.1188	41.5545	418.7756	-0.0592	0.0182	-0.0073	-0.0462	0.0165	0.9585
0.99021	30.635	303.8846	19.8066	-107.3698	-1.0424	190.7179	-47.6877	517.708	-28.3808	206.8011	43.4568	445.5157	-0.0592	0.0182	-0.0073	-0.0462	0.0165	0.9585
1.0039	23.4542	245.1712	15.3985	-86.6407	-1.0567	154.0952	-46.3185	552.6245	-31.0413	220.5323	44.8471	471.9568	-0.0592	0.0182	-0.0073	-0.0462	0.0165	0.9585
1.0175	16.1475	191.2196	11.7453	-67.557	-1.5318	120.5116	-44.1658	588.066	-34.0328	234.3737	46.2062	498.4556	-0.0592	0.0182	-0.0073	-0.0462	0.0165	0.9585
1.0311	9.2497	143.8448	8.8563	-50.7726	-2.2863	91.0199	-41.9128	623.7376	-37.4994	248.1884	47.9193	524.9281	-0.0592	0.0182	-0.0073	-0.0462	0.0165	0.9585
1.0448	3.2721	104.024	6.6799	-36.6519	-3.1162	66.1657	-40.0715	658.8752	-41.4307	261.6725	50.1683	550.8591	-0.0592	0.0182	-0.0073	-0.0462	0.0165	0.9585
1.0584	-1.4418	71.8702	5.0917	-25.251	-3.8301	46.0016	-38.8572	692.404	-45.6042	274.4254	52.8451	575.4236	-0.0592	0.0182	-0.0073	-0.0462	0.0165	0.9585
1.0721	-4.7449	46.8568	3.9335	-16.3934	-4.2889	30.2277	-38.2092	723.1159	-49.6576	286.0121	55.6287	597.645	-0.0592	0.0182	-0.0073	-0.0462	0.0165	0.9585
1.0857	-6.6284	28.1287	3.0265	-9.7794	-4.3837	18.3452	-37.9217	749.752	-53.2148	295.9841	58.1342	616.4766	-0.0592	0.0182	-0.0073	-0.0462	0.0165	0.9585
1.0994	-7.1817	14.712	2.2492	-5.0593	-4.0787	9.7786	-37.7622	771.1043	-56.0199	303.9079	60.0622	630.9164	-0.0592	0.0182	-0.0073	-0.0462	0.0165	0.9585
1.113	-6.6426	5.6512	1.5436	-1.8872	-3.4274	3.948	-37.4965	786.2296	-57.965	309.4425	61.2342	640.1829	-0.0592	0.0182	-0.0073	-0.0462	0.0165	0.9585
1.1266	-5.484	0.10608	0.94544	0.041764	-2.626	0.34037	-36.9056	794.6818	-59.0472	312.4309	61.5641	643.8998	-0.0592	0.0182	-0.0073	-0.0462	0.0165	0.9585
1.1403	-4.1528	-2.7689	0.49465	1.0305	-1.8617	-1.5517	-35.8093	796.6788	-59.3116	312.9698	61.0239	642.227	-0.0592	0.0182	-0.0073	-0.0462	0.0165	0.9585
1.1539	-2.9127	-3.8082	0.18314	1.3733	-1.2216	-2.2462	-34.0829	793.1391	-58.8225	311.4257	59.6273	635.8853	-0.0592	0.0182	-0.0073	-0.0462	0.0165	0.9585
1.1676	-1.8914	-3.7242	-0.00969	1.3218	-0.73806	-2.2015	-31.6875	785.5063	-57.6907	308.3636	57.4593	626.0334	-0.0592	0.0182	-0.0073	-0.0462	0.0165	0.9585
1.1812	-1.1284	-3.0446	-0.115	1.0633	-0.40344	-1.7536	-28.6697	775.4335	-56.0785	304.4233	54.6738	614.0021	-0.0592	0.0182	-0.0073	-0.0462	0.0165	0.9585
1.1949	-0.60123	-2.1301	-0.15539	0.72782	-0.19806	-1.1419	-25.1611	764.5501	-54.1888	300.2255	51.4871	601.1177	-0.0592	0.0182	-0.0073	-0.0462	0.0165	0.9585
1.2085	-0.27905	-1.1976	-0.15838	0.39447	-0.089493	-0.50709	-21.3446	754.3239	-52.2078	296.3218	48.1183	588.5931	-0.0592	0.0182	-0.0073	-0.0462	0.0165	0.9585
1.2221	-0.11956	-0.36966	-0.1355	0.1058	-0.053525	0.061482	-17.4171	745.9236	-50.3029	293.1462	44.7771	577.4084	-0.0592	0.0182	-0.0073	-0.0462	0.0165	0.9585
1.2358	-0.081472	0.29746	-0.10185	-0.12208	-0.062879	0.51851	-13.5812	740.1338	-48.6036	290.9815	41.6418	568.2444	-0.0592	0.0182	-0.0073	-0.0462	0.0165	0.9585
1.2494	-0.13133	0.78772	-0.060636	-0.28713	-0.10557	0.85049	-10.0102	737.3301	-47.2118	289.9516	38.8615	561.4567	-0.0592	0.0182	-0.0073	-0.0462	0.0165	0.9585
1.2631	-0.2436	1.1022	-0.022072	-0.39382	-0.16618	1.0459	-6.8279	737.5303	-46.1926	290.0422	36.5313	557.1146	-0.0592	0.0182	-0.0073	-0.0462	0.0165	0.9585
1.2767	-0.4082	1.2422	0.015471	-0.44437	-0.24885	1.1116	-4.1017	740.4435	-45.5745	291.123	34.6948	555.0285	-0.0592	0.0182	-0.0073	-0.0462	0.0165	0.9585
1.2904	-0.60939	1.2015	0.049628	-0.43671	-0.3493	1.0425	-1.8329	745.5271	-45.3479	292.9734	33.3412	554.7984	-0.0592	0.0182	-0.0073	-0.0462	0.0165	0.9585
1.304	-0.83532	0.96917	0.084923	-0.36286	-0.46663	0.82321	0.021607	752.0478	-45.4612	295.3031	32.4085	555.875	-0.0592	0.0182	-0.0073	-0.0462	0.0165	0.9585
1.3176	-1.0774	0.5215	0.11449	-0.20809	-0.58956	0.42509	1.5404	759.0971	-45.8377	297.7584	31.8065	557.5763	-0.0592	0.0182	-0.0073	-0.0462	0.0165	0.9585
1.3313	-1.3168	-0.17026	0.13692	0.043978	-0.70678	-0.1897	2.8079	765.6372	-46.3791	299.9411	31.4272	559.1361	-0.0592	0.0182	-0.0073	-0.0462	0.0165	0.9585
1.3449	-1.5135	-1.1311	0.14714	0.40638	-0.7946	-1.0535	3.8941	770.6554	-46.9831	301.4645	31.1694	559.8194	-0.0592	0.0182	-0.0073	-0.0462	0.0165	0.9585
1.3586	-1.5984	-2.3722	0.13745	0.88241	-0.81782	-2.1817	4.8624	773.3326	-47.5405	302.0174	30.9324	559.0263	-0.0592	0.0182	-0.0073	-0.0462	0.0165	0.9585
1.3722	-1.4727	-3.8385	0.097215	1.4506	-0.7301	-3.5252	5.7489	773.1382	-47.9977	301.3988	30.667	556.3704	-0.0592	0.0182	-0.0073	-0.0462	0.0165	0.9585
1.3859	-1.0057	-5.3653	0.00691	2.0446	-0.46436	-4.929	6.59	769.9152	-48.3588	299.549	30.3609	551.7184	-0.0592	0.0182	-0.0073	-0.0462	0.0165	0.9585
1.3995	-0.030427	-6.6253	-0.14462	2.5345	0.051996	-6.0954	7.442	763.9595	-48.7044	296.5826	30.0462	545.2322	-0.0592	0.0182	-0.0073	-0.0462	0.0165	0.9585
1.4131	1.6256	-7.0717	-0.37446	2.7061	0.90139	-6.5356	8.368	755.9869	-49.137	292.7819	29.7602	537.3594	-0.0592	0.0182	-0.0073	-0.0462	0.0165	0.9585
1.4268	4.1039	-5.9005	-0.67811	2.2441	2.1338	-5.5349	9.4501	746.9916	-49.7661	288.5448	29.5499	528.7339	-0.0592	0.0182	-0.0073	-0.0462	0.0165	0.9585
1.4404	7.4556	-2.0285	-1.0451	0.7259	3.7575	-2.125	10.7565	738.0156	-50.6379	284.2974	29.4265	520.0414	-0.0592	0.0182	-0.0073	-0.0462	0.0165	0.9585
1.4541	11.5545	5.8488	-1.4335	-2.3566	5.6822	4.8809	12.3167	729.8311	-51.7453	280.3693	29.3853	511.8222	-0.0592	0.0182	-0.0073	-0.0462	0.0165	0.9585
1.4677	15.978	19.1067	-1.7719	-7.5392	7.6737	16.7455	14.1022	722.6505	-52.9889	276.8781	29.3793	504.2654	-0.0592	0.0182	-0.0073	-0.0462	0.0165	0.9585
1.4814	19.8548	38.8934	-1.9247	-15.269	9.2657	34.5374	16.0404	715.9742	-54.2109	273.6617	29.3414	497.0908	-0.0592	0.0182	-0.0073	-0.0462	0.0165	0.9585
1.495	21.8238	65.7456	-1.7063	-25.7532	9.7585	58.7905	18.0413	708.6029	-55.2019	270.2847	29.1736	489.5397	-0.0592	0.0182	-0.0073	-0.0462	0.0165	0.9585
1.5086	20.5397	99.5208	-0.89287	-38.9274	8.4348	89.4499	19.9964	698.8944	-55.7377	266.1358	28.7771	480.5654	-0.0592	0.0182	-0.0073	-0.0462	0.0165	0.9585
1.5223	15.7838	139.7702	0.71224	-54.5953	5.0412	126.1589	21.805	685.1046	-55.5899	260.559	28.0452	469.0436	-0.0592	0.0182	-0.0073	-0.0462	0.0165	0.9585
1.5359	8.366	185.2844	3.2769	-72.2486	-0.24384	167.7596	23.3814	665.6414	-54.5998	252.9493	26.9069	453.9363	-0.0592	0.0182	-0.0073	-0.0462	0.0165	0.9585
1.5496	-0.74339	233.1096	7.0338	-90.7193	-7.2294	211.3832	24.6505	639.2212	-52.7027	242.8146	25.3417	434.3976	-0.0592	0.0182	-0.0073	-0.0462	0.0165	0.9585
1.5632	-10.3751	279.9773	11.7772	-108.7663	-15.2424	253.8215	25.5412	605.1237	-49.9395	229.8688	23.3973	409.9475	-0.0592	0.0182	-0.0073	-0.0462	0.0165	0.9585
1.5769	-19.5567	324.5169	16.8995	-125.8973	-23.3181	293.6397	25.9491	563.3893	-46.4644	214.1013	21.2041	380.6251	-0.0592	0.0182	-0.0073	-0.0462	0.0165	0.9585
1.5905	-27.6911	367.113	21.793	-142.3037	-30.6635	331.0272	25.7486	514.7502	-42.5098	195.7576	18.9454	346.9254	-0.0592	0.0182	-0.0073	-0.0462	0.0165	0.9585
